<svg width="22" height="21" viewBox="0 0 22 21" fill="none" xmlns="http://www.w3.org/2000/svg">
<path d="M16 1.25126C14.7957 0.0543262 14.1037 -0.400063 12.6667 1.25126V19.7263C14.0886 20.7888 14.8017 20.646 16 19.7263V1.25126Z" fill="white" stroke="black" stroke-width="0.333333"/>
<path d="M9.33333 1.25126C8.12902 0.0543262 7.43699 -0.400063 6 1.25126V19.7263C7.4219 20.7888 8.135 20.646 9.33333 19.7263V1.25126Z" fill="white" stroke="black" stroke-width="0.333333"/>
<rect width="3.38235" height="20" transform="translate(21 5.24997) rotate(90)" fill="white"/>
<path d="M19.9408 8.63232C21.1204 7.41029 21.5682 6.70809 19.9408 5.24997L1.73352 5.24997C0.686409 6.69278 0.827108 7.41637 1.73352 8.63232L19.9408 8.63232Z" stroke="black" stroke-width="0.333333"/>
<rect width="3.38235" height="20" transform="translate(21 12.0147) rotate(90)" fill="white"/>
<path d="M19.9408 15.397C21.1204 14.175 21.5682 13.4728 19.9408 12.0147L1.73352 12.0147C0.686409 13.4575 0.827108 14.1811 1.73352 15.397L19.9408 15.397Z" stroke="black" stroke-width="0.333333"/>
</svg>
