<svg width="69" height="69" viewBox="0 0 69 69" fill="none" xmlns="http://www.w3.org/2000/svg">
<ellipse cx="34.5" cy="34.0633" rx="29.2595" ry="28.8228" fill="#C4C4C4"/>
<path d="M68.5 34.5C68.5 53.2777 53.2777 68.5 34.5 68.5C15.7223 68.5 0.5 53.2777 0.5 34.5C0.5 15.7223 15.7223 0.5 34.5 0.5C53.2777 0.5 68.5 15.7223 68.5 34.5Z" stroke="#0093FD"/>
<path d="M42.9836 23.1886C42.9836 27.8739 39.1853 31.6722 34.5 31.6722C29.8146 31.6722 26.0164 27.8739 26.0164 23.1886C26.0164 18.5032 29.8146 14.705 34.5 14.705C39.1853 14.705 42.9836 18.5032 42.9836 23.1886Z" fill="white"/>
<path fill-rule="evenodd" clip-rule="evenodd" d="M10.859 51.0299V48.3879V48.3813V48.3747V48.3681V48.3616V48.355V48.3485V48.3419V48.3354V48.3289V48.3224V48.3159V48.3094V48.3029V48.2964V48.29V48.2835V48.2771V48.2707V48.2643V48.2579V48.2515V48.2451V48.2387V48.2324V48.226V48.2197V48.2133V48.207V48.2007V48.1944V48.1881V48.1818V48.1756V48.1693V48.1631V48.1568V48.1506V48.1444V48.1382V48.132V48.1258V48.1196V48.1134V48.1073V48.1011V48.095V48.0888V48.0827V48.0766V48.0705V48.0644V48.0583V48.0522V48.0461V48.0401V48.034V48.028V48.0219V48.0159V48.0099V48.0039V47.9979V47.9919V47.9859V47.9799V47.974V47.968V47.9621V47.9561V47.9502V47.9443V47.9384V47.9324V47.9265V47.9207V47.9148V47.9089V47.903V47.8972V47.8913V47.8855V47.8796V47.8738V47.868V47.8622V47.8564V47.8506V47.8448V47.839V47.8332V47.8274V47.8217V47.8159V47.8102V47.8044V47.7987V47.793V47.7873V47.7816V47.7759V47.7702V47.7645V47.7588V47.7531V47.7474V47.7418V47.7361V47.7305V47.7248V47.7192V47.7135V47.7079V47.7023V47.6967V47.6911V47.6855V47.6799V47.6743V47.6687V47.6632V47.6576V47.652V47.6465V47.6409V47.6354V47.6298V47.6243V47.6188V47.6132V47.6077V47.6022V47.5967V47.5912V47.5857V47.5802V47.5747V47.5693V47.5638V47.5583V47.5529V47.5474V47.542V47.5365V47.5311V47.5256V47.5202V47.5148V47.5093V47.5039V47.4985V47.4931V47.4877V47.4823V47.4769V47.4715V47.4661V47.4608V47.4554V47.45V47.4446V47.4393V47.4339V47.4286V47.4232V47.4179V47.4125V47.4072V47.4018V47.3965V47.3912V47.3859V47.3805V47.3752V47.3699V47.3646V47.3593V47.354V47.3487V47.3434V47.3381V47.3328V47.3275V47.3223V47.317V47.3117V47.3064V47.3012V47.2959V47.2906V47.2854V47.2801V47.2749V47.2696V47.2644V47.2591V47.2539V47.2486V47.2434V47.2382V47.2329V47.2277V47.2225V47.2173V47.212V47.2068V47.2016V47.1964V47.1912V47.1859V47.1807V47.1755V47.1703V47.1651V47.1599V47.1547V47.1495V47.1443V47.1391V47.1339V47.1287V47.1236V47.1184V47.1132V47.108V47.1028V47.0976V47.0925V47.0873V47.0821V47.0769V47.0717V47.0666V47.0614V47.0562V47.051V47.0459V47.0407V47.0355V47.0304V47.0252V47.02V47.0149V47.0097V47.0045V46.9994V46.9942V46.989V46.9839V46.9787V46.9736V46.9684V46.9632V46.9581V46.9529V46.9477V46.9426V46.9374V46.9323V46.9271V46.9219V46.9168V46.9116V46.9065V46.9013V46.8961V46.891V46.8858V46.8806V46.8755V46.8703V46.8651V46.86V46.8548V46.8496V46.8445V46.8393V46.8341V46.829V46.8238V46.8186V46.8134V46.8083V46.8031V46.7979V46.7927V46.7875V46.7824V46.7772V46.772V46.7668V46.7616V46.7564V46.7512V46.746V46.7408V46.7357V46.7305V46.7253V46.7201V46.7148V46.7096V46.7044V46.6992V46.694V46.6888V46.6836V46.6784V46.6731V46.6679V46.6627V46.6575V46.6522V46.647V46.6418V46.6365V46.6313V46.6261V46.6208V46.6156V46.6103V46.6051V46.5998V46.5945V46.5893V46.584V46.5787V46.5735V46.5682V46.5629V46.5576V46.5524V46.5471V46.5418V46.5365V46.5312V46.5259V46.5206V46.5153V46.51V46.5046V46.4993V46.494V46.4887V46.4833V46.478V46.4727V46.4673V46.462V46.4566V46.4513V46.4459V46.4405V46.4352V46.4298V46.4244V46.419V46.4137V46.4083V46.4029V46.3975V46.3921V46.3867V46.3812V46.3758V46.3704V46.365V46.3595V46.3541V46.3487V46.3432V46.3378V46.3323V46.3268V46.3214V46.3159V46.3104V46.3049V46.2995V46.294V46.2885V46.283V46.2774V46.2719V46.2664V46.2609V46.2553V46.2498V46.2443V46.2387V46.2332V46.2276V46.222V46.2164V46.2109V46.2053V46.1997V46.1941V46.1885V46.1829V46.1773V46.1716V46.166V46.1604V46.1547V46.1491V46.1434V46.1377V46.1321V46.1264V46.1207V46.115V46.1093V46.1036V46.0979V46.0922V46.0865V46.0807V46.075V46.0692V46.0635V46.0577V46.052V46.0462V46.0404V46.0346V46.0288V46.023V46.0172V46.0114V46.0055V45.9997V45.9939V45.988V45.9821V45.9763V45.9704V45.9645V45.9586V45.9527V45.9468V45.9409V45.935V45.929V45.9231V45.9172V45.9112V45.9052V45.8993V45.8933V45.8873V45.8813V45.8753V45.8693V45.8632V45.8572V45.8511V45.8451V45.839V45.833V45.8269V45.8208V45.8147V45.8086V45.8025V45.7963V45.7902V45.7841V45.7779V45.7718V45.7656V45.7594V45.7532V45.747V45.7408V45.7346V45.7283V45.7221V45.7159V45.7096V45.7033V45.6971V45.6908V45.6845V45.6782V45.6718V45.6655V45.6592V45.6528V45.6465V45.6401V45.6337V45.6273V45.6209V45.6145V45.6081V45.6016V45.5952V45.5887V45.5823V45.5758V45.5693V45.5628V45.5563V45.5498V45.5433V45.5367V45.5302V45.5236V45.517V45.5104V45.5038V45.4972V45.3095L10.992 45.1769L13.8905 42.2862L16.7891 39.3954L19.6877 36.5047L19.6946 36.4979L19.6946 36.4979C20.5504 35.6804 21.8583 34.3551 22.3695 33.8349L22.5264 33.6751L22.568 33.6326L22.5787 33.6217L22.5814 33.6189L22.582 33.6183L22.5822 33.6181L22.5822 33.6181L22.5822 33.618L22.7153 33.4819H22.9057H28.7029H34.5H40.2971H46.0943H46.2813L46.4138 33.614L52.2109 39.3954L58.008 45.1769L58.141 45.3095V45.4972V51.0299C57.8499 51.4454 57.5481 51.8529 57.2361 52.252V45.685L51.5719 40.0362L46.0943 34.5734L37.851 42.7943V57.0601V57.2478L37.7181 57.3804L34.8195 60.2712L34.5 60.5898L34.1805 60.2712L31.2819 57.3804L31.149 57.2478V57.0601V54.1694V45.4972V42.7943L28.3893 40.0421L22.7069 34.7821C22.0887 35.4086 21.0494 36.455 20.3232 37.1489L17.4281 40.0362L14.5295 42.9269L11.7639 45.685V45.6908V45.6971V45.7033V45.7096V45.7159V45.7221V45.7283V45.7346V45.7408V45.747V45.7532V45.7594V45.7656V45.7718V45.7779V45.7841V45.7902V45.7963V45.8025V45.8086V45.8147V45.8208V45.8269V45.833V45.839V45.8451V45.8511V45.8572V45.8632V45.8693V45.8753V45.8813V45.8873V45.8933V45.8993V45.9052V45.9112V45.9172V45.9231V45.929V45.935V45.9409V45.9468V45.9527V45.9586V45.9645V45.9704V45.9763V45.9821V45.988V45.9939V45.9997V46.0055V46.0114V46.0172V46.023V46.0288V46.0346V46.0404V46.0462V46.052V46.0577V46.0635V46.0692V46.075V46.0807V46.0865V46.0922V46.0979V46.1036V46.1093V46.115V46.1207V46.1264V46.1321V46.1377V46.1434V46.1491V46.1547V46.1604V46.166V46.1716V46.1773V46.1829V46.1885V46.1941V46.1997V46.2053V46.2109V46.2164V46.222V46.2276V46.2332V46.2387V46.2443V46.2498V46.2553V46.2609V46.2664V46.2719V46.2774V46.283V46.2885V46.294V46.2995V46.3049V46.3104V46.3159V46.3214V46.3268V46.3323V46.3378V46.3432V46.3487V46.3541V46.3595V46.365V46.3704V46.3758V46.3812V46.3867V46.3921V46.3975V46.4029V46.4083V46.4137V46.419V46.4244V46.4298V46.4352V46.4405V46.4459V46.4513V46.4566V46.462V46.4673V46.4727V46.478V46.4833V46.4887V46.494V46.4993V46.5046V46.51V46.5153V46.5206V46.5259V46.5312V46.5365V46.5418V46.5471V46.5524V46.5576V46.5629V46.5682V46.5735V46.5787V46.584V46.5893V46.5945V46.5998V46.6051V46.6103V46.6156V46.6208V46.6261V46.6313V46.6365V46.6418V46.647V46.6522V46.6575V46.6627V46.6679V46.6731V46.6784V46.6836V46.6888V46.694V46.6992V46.7044V46.7096V46.7148V46.7201V46.7253V46.7305V46.7357V46.7408V46.746V46.7512V46.7564V46.7616V46.7668V46.772V46.7772V46.7824V46.7875V46.7927V46.7979V46.8031V46.8083V46.8134V46.8186V46.8238V46.829V46.8341V46.8393V46.8445V46.8496V46.8548V46.86V46.8651V46.8703V46.8755V46.8806V46.8858V46.891V46.8961V46.9013V46.9065V46.9116V46.9168V46.9219V46.9271V46.9323V46.9374V46.9426V46.9477V46.9529V46.9581V46.9632V46.9684V46.9736V46.9787V46.9839V46.989V46.9942V46.9994V47.0045V47.0097V47.0149V47.02V47.0252V47.0304V47.0355V47.0407V47.0459V47.051V47.0562V47.0614V47.0666V47.0717V47.0769V47.0821V47.0873V47.0925V47.0976V47.1028V47.108V47.1132V47.1184V47.1236V47.1287V47.1339V47.1391V47.1443V47.1495V47.1547V47.1599V47.1651V47.1703V47.1755V47.1807V47.1859V47.1912V47.1964V47.2016V47.2068V47.212V47.2173V47.2225V47.2277V47.2329V47.2382V47.2434V47.2486V47.2539V47.2591V47.2644V47.2696V47.2749V47.2801V47.2854V47.2906V47.2959V47.3012V47.3064V47.3117V47.317V47.3223V47.3275V47.3328V47.3381V47.3434V47.3487V47.354V47.3593V47.3646V47.3699V47.3752V47.3805V47.3859V47.3912V47.3965V47.4018V47.4072V47.4125V47.4179V47.4232V47.4286V47.4339V47.4393V47.4446V47.45V47.4554V47.4608V47.4661V47.4715V47.4769V47.4823V47.4877V47.4931V47.4985V47.5039V47.5093V47.5148V47.5202V47.5256V47.5311V47.5365V47.542V47.5474V47.5529V47.5583V47.5638V47.5693V47.5747V47.5802V47.5857V47.5912V47.5967V47.6022V47.6077V47.6132V47.6188V47.6243V47.6298V47.6354V47.6409V47.6465V47.652V47.6576V47.6632V47.6687V47.6743V47.6799V47.6855V47.6911V47.6967V47.7023V47.7079V47.7135V47.7192V47.7248V47.7305V47.7361V47.7418V47.7474V47.7531V47.7588V47.7645V47.7702V47.7759V47.7816V47.7873V47.793V47.7987V47.8044V47.8102V47.8159V47.8217V47.8274V47.8332V47.839V47.8448V47.8506V47.8564V47.8622V47.868V47.8738V47.8796V47.8855V47.8913V47.8972V47.903V47.9089V47.9148V47.9207V47.9265V47.9324V47.9384V47.9443V47.9502V47.9561V47.9621V47.968V47.974V47.9799V47.9859V47.9919V47.9979V48.0039V48.0099V48.0159V48.0219V48.028V48.034V48.0401V48.0461V48.0522V48.0583V48.0644V48.0705V48.0766V48.0827V48.0888V48.095V48.1011V48.1073V48.1134V48.1196V48.1258V48.132V48.1382V48.1444V48.1506V48.1568V48.1631V48.1693V48.1756V48.1818V48.1881V48.1944V48.2007V48.207V48.2133V48.2197V48.226V48.2324V48.2387V48.2451V48.2515V48.2579V48.2643V48.2707V48.2771V48.2835V48.29V48.2964V48.3029V48.3094V48.3159V48.3224V48.3289V48.3354V48.3419V48.3485V48.355V48.3616V48.3681V48.3747V48.3813V48.3879V52.252C11.4519 51.8529 11.1501 51.4454 10.859 51.0299ZM28.5158 34.3869H23.612L29.0102 39.3838L29.0164 39.3895L29.0224 39.3954L31.6014 41.9675L33.8592 39.7158L28.5158 34.3869ZM32.0539 45.4972V42.7943L34.5 40.3548L36.9461 42.7943V56.8723L34.5 59.3118L32.0539 56.8723V54.1694V45.4972ZM37.3986 41.9675L35.1407 39.7158L40.4842 34.3869H44.9998L37.3986 41.9675ZM34.5 34.3869H39.2027L34.5 39.0768L29.7973 34.3869H34.5Z" fill="white"/>
</svg>
