<svg width="155" height="42" viewBox="0 0 155 42" fill="none" xmlns="http://www.w3.org/2000/svg">
<g filter="url(#filter0_d)">
<path d="M9.1207 17.9526C9.1207 19.1531 9.39038 20.197 9.92975 21.0844C10.4691 21.9717 11.1825 22.659 12.0698 23.1461C12.9572 23.6159 13.9228 23.8508 14.9667 23.8508C16.2543 23.8508 17.3504 23.6072 18.2551 23.12C19.1773 22.6329 19.9428 22.0413 20.5518 21.3454V25.5733C19.8036 26.1649 18.9946 26.6259 18.1246 26.9565C17.2547 27.2871 16.1499 27.4524 14.8102 27.4524C13.4008 27.4524 12.0959 27.2262 10.8954 26.7738C9.71226 26.3041 8.68572 25.6516 7.81578 24.8164C6.94583 23.9813 6.26727 22.9809 5.7801 21.8151C5.29293 20.6494 5.04935 19.3619 5.04935 17.9526C5.04935 16.5432 5.29293 15.2557 5.7801 14.09C6.26727 12.9243 6.94583 11.9238 7.81578 11.0887C8.68572 10.2535 9.71226 9.60977 10.8954 9.1574C12.0959 8.68762 13.4008 8.45274 14.8102 8.45274C16.1499 8.45274 17.2547 8.61803 18.1246 8.94861C18.9946 9.26179 19.8036 9.72286 20.5518 10.3318V14.5598C19.9428 13.8464 19.1773 13.2548 18.2551 12.7851C17.3504 12.2979 16.2543 12.0543 14.9667 12.0543C13.9228 12.0543 12.9572 12.2979 12.0698 12.7851C11.1825 13.2548 10.4691 13.9334 9.92975 14.8208C9.39038 15.6907 9.1207 16.7346 9.1207 17.9526ZM24.4225 21.0844C24.4225 19.8316 24.7096 18.7355 25.2838 17.796C25.8753 16.8564 26.667 16.1257 27.6587 15.6037C28.6679 15.0817 29.8075 14.8208 31.0776 14.8208C32.3477 14.8208 33.4874 15.0817 34.4965 15.6037C35.5056 16.1257 36.2973 16.8564 36.8715 17.796C37.463 18.7355 37.7588 19.8316 37.7588 21.0844C37.7588 22.3197 37.463 23.4158 36.8715 24.3728C36.2973 25.3123 35.5056 26.0431 34.4965 26.565C33.4874 27.087 32.3477 27.348 31.0776 27.348C29.8075 27.348 28.6679 27.087 27.6587 26.565C26.667 26.0431 25.8753 25.3123 25.2838 24.3728C24.7096 23.4158 24.4225 22.3197 24.4225 21.0844ZM27.8936 21.0844C27.8936 22.0935 28.1981 22.9113 28.8071 23.5376C29.4334 24.164 30.1903 24.4772 31.0776 24.4772C31.965 24.4772 32.7131 24.164 33.3221 23.5376C33.9484 22.9113 34.2616 22.0935 34.2616 21.0844C34.2616 20.0578 33.9484 19.2401 33.3221 18.6311C32.7131 18.0048 31.965 17.6916 31.0776 17.6916C30.1903 17.6916 29.4334 18.0048 28.8071 18.6311C28.1981 19.2401 27.8936 20.0578 27.8936 21.0844ZM48.4375 18.6311C48.2114 18.4223 47.9765 18.2657 47.7329 18.1613C47.5067 18.0396 47.2196 17.9787 46.8716 17.9787C46.2279 17.9787 45.7407 18.2222 45.4101 18.7094C45.0796 19.1966 44.9143 19.8751 44.9143 20.7451V27.087H41.5737V15.0817H44.9143V16.5693C45.2796 16.03 45.7146 15.6037 46.2192 15.2905C46.7238 14.9773 47.2457 14.8208 47.7851 14.8208C48.2201 14.8208 48.6376 14.899 49.0378 15.0556C49.438 15.2122 49.7512 15.4471 49.9774 15.7603L48.4375 18.6311ZM56.3884 32.8287H52.9956V15.0817H56.3884V17.0391C56.8234 16.3084 57.3801 15.7429 58.0587 15.3427C58.7546 14.9251 59.555 14.7164 60.4597 14.7164C61.4689 14.7164 62.4084 14.9599 63.2784 15.4471C64.1657 15.9343 64.8791 16.6563 65.4184 17.6133C65.9752 18.5528 66.2536 19.7099 66.2536 21.0844C66.2536 22.4589 65.9752 23.6246 65.4184 24.5816C64.8791 25.5211 64.1657 26.2345 63.2784 26.7216C62.4084 27.2088 61.4689 27.4524 60.4597 27.4524C59.555 27.4524 58.7546 27.2523 58.0587 26.8521C57.3801 26.4345 56.8234 25.8604 56.3884 25.1296V32.8287ZM62.7042 21.0844C62.7042 20.0056 62.3823 19.1792 61.7386 18.605C61.1122 18.0309 60.3553 17.7438 59.468 17.7438C58.9808 17.7438 58.5024 17.8743 58.0326 18.1352C57.5628 18.3788 57.1713 18.7529 56.8582 19.2575C56.545 19.7447 56.3884 20.3536 56.3884 21.0844C56.3884 21.8151 56.545 22.4328 56.8582 22.9374C57.1713 23.4245 57.5628 23.7986 58.0326 24.0596C58.5024 24.3032 58.9808 24.425 59.468 24.425C60.3553 24.425 61.1122 24.1379 61.7386 23.5637C62.3823 22.9722 62.7042 22.1457 62.7042 21.0844Z" fill="#0093FD"/>
<path d="M9.92975 21.0844L9.07199 21.6058L9.92975 21.0844ZM12.0698 23.1461L11.5867 24.026L11.5934 24.0297L11.6002 24.0333L12.0698 23.1461ZM18.2551 23.12L17.7862 22.2325L17.7792 22.2362L18.2551 23.12ZM20.5518 21.3454H21.5556V18.6738L19.7964 20.6844L20.5518 21.3454ZM20.5518 25.5733L21.1744 26.3607L21.5556 26.0593V25.5733H20.5518ZM18.1246 26.9565L17.7681 26.0182L18.1246 26.9565ZM10.8954 26.7738L10.525 27.7068L10.5332 27.71L10.5414 27.7131L10.8954 26.7738ZM7.81578 24.8164L8.51093 24.0923H8.51093L7.81578 24.8164ZM5.7801 21.8151L4.85394 22.2022H4.85394L5.7801 21.8151ZM5.7801 14.09L4.85394 13.7029H4.85394L5.7801 14.09ZM7.81578 11.0887L7.12062 10.3646L7.12062 10.3646L7.81578 11.0887ZM10.8954 9.1574L11.2539 10.095L11.2612 10.0922L10.8954 9.1574ZM18.1246 8.94861L17.7681 9.88693L17.7763 9.89007L17.7846 9.89306L18.1246 8.94861ZM20.5518 10.3318H21.5556V9.85459L21.1855 9.55333L20.5518 10.3318ZM20.5518 14.5598L19.7884 15.2115L21.5556 17.2817V14.5598H20.5518ZM18.2551 12.7851L17.7792 13.6689L17.7893 13.6743L17.7995 13.6795L18.2551 12.7851ZM12.0698 12.7851L12.5395 13.6722L12.5462 13.6686L12.5529 13.665L12.0698 12.7851ZM9.92975 14.8208L10.7829 15.3497L10.7875 15.3421L9.92975 14.8208ZM8.11691 17.9526C8.11691 19.3078 8.423 20.5381 9.07199 21.6058L10.7875 20.563C10.3578 19.856 10.1245 18.9984 10.1245 17.9526H8.11691ZM9.07199 21.6058C9.70023 22.6393 10.5411 23.452 11.5867 24.026L12.5529 22.2662C11.8238 21.866 11.238 21.3041 10.7875 20.563L9.07199 21.6058ZM11.6002 24.0333C12.638 24.5827 13.7658 24.8546 14.9667 24.8546V22.847C14.0798 22.847 13.2763 22.6491 12.5395 22.259L11.6002 24.0333ZM14.9667 24.8546C16.3791 24.8546 17.6476 24.5873 18.731 24.0039L17.7792 22.2362C17.0532 22.6272 16.1294 22.847 14.9667 22.847V24.8546ZM18.724 24.0076C19.741 23.4703 20.6078 22.8058 21.3072 22.0064L19.7964 20.6844C19.2779 21.2769 18.6136 21.7954 17.7863 22.2325L18.724 24.0076ZM19.548 21.3454V25.5733H21.5556V21.3454H19.548ZM19.9292 24.7859C19.2595 25.3155 18.5398 25.7249 17.7681 26.0182L18.4812 27.8948C19.4494 27.5269 20.3478 27.0143 21.1744 26.3607L19.9292 24.7859ZM17.7681 26.0182C17.0503 26.2909 16.0771 26.4486 14.8102 26.4486V28.4562C16.2227 28.4562 17.4591 28.2832 18.4812 27.8948L17.7681 26.0182ZM14.8102 26.4486C13.5098 26.4486 12.3261 26.2402 11.2493 25.8345L10.5414 27.7131C11.8657 28.2121 13.2918 28.4562 14.8102 28.4562V26.4486ZM11.2658 25.8409C10.1966 25.4164 9.28202 24.8326 8.51093 24.0923L7.12062 25.5406C8.08942 26.4706 9.22791 27.1918 10.525 27.7068L11.2658 25.8409ZM8.51093 24.0923C7.745 23.357 7.14294 22.473 6.70626 21.4281L4.85394 22.2022C5.39161 23.4887 6.14666 24.6056 7.12062 25.5406L8.51093 24.0923ZM6.70626 21.4281C6.27593 20.3984 6.05313 19.2443 6.05313 17.9526H4.04556C4.04556 19.4794 4.30993 20.9004 4.85394 22.2022L6.70626 21.4281ZM6.05313 17.9526C6.05313 16.6608 6.27593 15.5068 6.70626 14.477L4.85394 13.7029C4.30993 15.0047 4.04556 16.4257 4.04556 17.9526H6.05313ZM6.70626 14.477C7.14294 13.4321 7.745 12.5481 8.51093 11.8128L7.12062 10.3646C6.14666 11.2996 5.39161 12.4164 4.85394 13.7029L6.70626 14.477ZM8.51093 11.8128C9.27921 11.0752 10.1897 10.5019 11.2539 10.095L10.5369 8.21981C9.23483 8.71766 8.09223 9.43182 7.12062 10.3646L8.51093 11.8128ZM11.2612 10.0922C12.3347 9.67208 13.5143 9.45652 14.8102 9.45652V7.44895C13.2874 7.44895 11.8571 7.70317 10.5296 8.22263L11.2612 10.0922ZM14.8102 9.45652C16.0771 9.45652 17.0503 9.61417 17.7681 9.88693L18.4812 8.01029C17.4591 7.62188 16.2227 7.44895 14.8102 7.44895V9.45652ZM17.7846 9.89306C18.5435 10.1662 19.254 10.5697 19.9181 11.1103L21.1855 9.55333C20.3533 8.87601 19.4457 8.35734 18.4647 8.00416L17.7846 9.89306ZM19.548 10.3318V14.5598H21.5556V10.3318H19.548ZM21.3152 13.908C20.6122 13.0844 19.7383 12.4141 18.7108 11.8907L17.7995 13.6795C18.6163 14.0956 19.2735 14.6084 19.7884 15.2115L21.3152 13.908ZM18.731 11.9013C17.6476 11.3179 16.3791 11.0505 14.9667 11.0505V13.0581C16.1294 13.0581 17.0532 13.2779 17.7792 13.6689L18.731 11.9013ZM14.9667 11.0505C13.7594 11.0505 12.6269 11.3341 11.5867 11.9052L12.5529 13.665C13.2875 13.2617 14.0862 13.0581 14.9667 13.0581V11.0505ZM11.6002 11.8979C10.5472 12.4554 9.70201 13.2629 9.07199 14.2994L10.7875 15.3421C11.2362 14.6039 11.8178 14.0543 12.5395 13.6722L11.6002 11.8979ZM9.07663 14.2918C8.42146 15.3485 8.11691 16.5836 8.11691 17.9526H10.1245C10.1245 16.8857 10.3593 16.0329 10.7829 15.3497L9.07663 14.2918ZM25.2838 17.796L24.4343 17.2611L24.4273 17.2725L25.2838 17.796ZM27.6587 15.6037L27.1976 14.7121L27.1912 14.7154L27.6587 15.6037ZM36.8715 17.796L36.0149 18.3194L36.022 18.3308L36.8715 17.796ZM36.8715 24.3728L36.0176 23.845L36.015 23.8493L36.8715 24.3728ZM34.4965 26.565L34.0353 25.6735L34.4965 26.565ZM27.6587 26.565L27.1912 27.4533L27.1976 27.4566L27.6587 26.565ZM25.2838 24.3728L24.423 24.8892L24.4286 24.8985L24.4343 24.9076L25.2838 24.3728ZM28.8071 23.5376L28.0873 24.2374L28.0973 24.2474L28.8071 23.5376ZM33.3221 23.5376L32.6122 22.8278L32.6024 22.8379L33.3221 23.5376ZM33.3221 18.6311L32.6024 19.3308L32.6122 19.341L32.6224 19.3508L33.3221 18.6311ZM25.4263 21.0844C25.4263 19.9903 25.6751 19.0805 26.1403 18.3194L24.4273 17.2725C23.7441 18.3905 23.4187 19.673 23.4187 21.0844H25.4263ZM26.1332 18.3308C26.6298 17.5421 27.2891 16.9326 28.1262 16.492L27.1912 14.7154C26.0449 15.3188 25.1208 16.1708 24.4343 17.2611L26.1332 18.3308ZM28.1199 16.4953C28.9704 16.0554 29.9488 15.8245 31.0776 15.8245V13.817C29.6662 13.817 28.3654 14.1081 27.1976 14.7121L28.1199 16.4953ZM31.0776 15.8245C32.2064 15.8245 33.1849 16.0554 34.0353 16.4953L34.9577 14.7121C33.7899 14.1081 32.489 13.817 31.0776 13.817V15.8245ZM34.0353 16.4953C34.887 16.9358 35.5396 17.5415 36.015 18.3194L37.728 17.2725C37.055 16.1713 36.1243 15.3156 34.9577 14.7121L34.0353 16.4953ZM36.022 18.3308C36.5002 19.0903 36.755 19.9959 36.755 21.0844H38.7626C38.7626 19.6673 38.4258 18.3807 37.7209 17.2611L36.022 18.3308ZM36.755 21.0844C36.755 22.1521 36.5017 23.062 36.0177 23.845L37.7253 24.9006C38.4244 23.7697 38.7626 22.4872 38.7626 21.0844H36.755ZM36.015 23.8493C35.5396 24.6272 34.887 25.233 34.0353 25.6735L34.9577 27.4566C36.1243 26.8532 37.055 25.9974 37.728 24.8962L36.015 23.8493ZM34.0353 25.6735C33.1849 26.1134 32.2064 26.3442 31.0776 26.3442V28.3518C32.489 28.3518 33.7899 28.0606 34.9577 27.4566L34.0353 25.6735ZM31.0776 26.3442C29.9488 26.3442 28.9704 26.1134 28.1199 25.6735L27.1976 27.4566C28.3654 28.0606 29.6662 28.3518 31.0776 28.3518V26.3442ZM28.1262 25.6768C27.2891 25.2362 26.6298 24.6267 26.1332 23.8379L24.4343 24.9076C25.1208 25.998 26.0449 26.85 27.1912 27.4533L28.1262 25.6768ZM26.1445 23.8563C25.6737 23.0717 25.4263 22.1578 25.4263 21.0844H23.4187C23.4187 22.4816 23.7455 23.76 24.423 24.8892L26.1445 23.8563ZM26.8898 21.0844C26.8898 22.3111 27.2679 23.3944 28.0873 24.2373L29.5268 22.8379C29.1283 22.4281 28.8974 21.8759 28.8974 21.0844H26.8898ZM28.0973 24.2474C28.9122 25.0624 29.9246 25.4809 31.0776 25.4809V23.4734C30.456 23.4734 29.9546 23.2656 29.5168 22.8278L28.0973 24.2474ZM31.0776 25.4809C32.2313 25.4809 33.2405 25.0615 34.0418 24.2373L32.6024 22.8379C32.1857 23.2664 31.6987 23.4734 31.0776 23.4734V25.4809ZM34.0319 24.2474C34.8732 23.4061 35.2654 22.3194 35.2654 21.0844H33.2578C33.2578 21.8676 33.0237 22.4164 32.6123 22.8278L34.0319 24.2474ZM35.2654 21.0844C35.2654 19.8381 34.8765 18.7424 34.0218 17.9114L32.6224 19.3508C33.0204 19.7378 33.2578 20.2776 33.2578 21.0844H35.2654ZM34.0418 17.9314C33.2405 17.1072 32.2313 16.6878 31.0776 16.6878V18.6954C31.6987 18.6954 32.1857 18.9023 32.6024 19.3308L34.0418 17.9314ZM31.0776 16.6878C29.9246 16.6878 28.9122 17.1064 28.0973 17.9213L29.5168 19.3409C29.9546 18.9032 30.456 18.6954 31.0776 18.6954V16.6878ZM28.0973 17.9213C27.2646 18.7541 26.8898 19.8464 26.8898 21.0844H28.8974C28.8974 20.2692 29.1316 19.7261 29.5168 19.3409L28.0973 17.9213ZM48.4375 18.6311L47.7567 19.3687L48.7093 20.2481L49.3221 19.1056L48.4375 18.6311ZM47.7329 18.1613L47.257 19.0452L47.2964 19.0664L47.3375 19.084L47.7329 18.1613ZM45.4101 18.7094L46.2407 19.273L45.4101 18.7094ZM44.9143 27.087V28.0908H45.918V27.087H44.9143ZM41.5737 27.087H40.5699V28.0908H41.5737V27.087ZM41.5737 15.0817V14.078H40.5699V15.0817H41.5737ZM44.9143 15.0817H45.918V14.078H44.9143V15.0817ZM44.9143 16.5693H43.9105V19.8409L45.7453 17.1323L44.9143 16.5693ZM46.2192 15.2905L45.6898 14.4377L46.2192 15.2905ZM49.9774 15.7603L50.8619 16.2347L51.1587 15.6815L50.7911 15.1726L49.9774 15.7603ZM49.1184 17.8935C48.8216 17.6196 48.4923 17.3947 48.1283 17.2387L47.3375 19.084C47.4606 19.1368 47.6011 19.2251 47.7567 19.3687L49.1184 17.8935ZM48.2088 17.2775C47.7937 17.054 47.3294 16.9749 46.8716 16.9749V18.9824C47.1098 18.9824 47.2197 19.0251 47.257 19.0452L48.2088 17.2775ZM46.8716 16.9749C45.9318 16.9749 45.1166 17.3543 44.5795 18.1458L46.2407 19.273C46.3648 19.0902 46.524 18.9824 46.8716 18.9824V16.9749ZM44.5795 18.1458C44.0941 18.8612 43.9105 19.7649 43.9105 20.7451H45.918C45.918 19.9854 46.065 19.532 46.2407 19.273L44.5795 18.1458ZM43.9105 20.7451V27.087H45.918V20.7451H43.9105ZM44.9143 26.0832H41.5737V28.0908H44.9143V26.0832ZM42.5774 27.087V15.0817H40.5699V27.087H42.5774ZM41.5737 16.0855H44.9143V14.078H41.5737V16.0855ZM43.9105 15.0817V16.5693H45.918V15.0817H43.9105ZM45.7453 17.1323C46.0393 16.6983 46.375 16.3752 46.7485 16.1434L45.6898 14.4377C45.0542 14.8322 44.5199 15.3617 44.0832 16.0064L45.7453 17.1323ZM46.7485 16.1434C47.1108 15.9185 47.4514 15.8245 47.7851 15.8245V13.817C47.04 13.817 46.3367 14.0361 45.6898 14.4377L46.7485 16.1434ZM47.7851 15.8245C48.0965 15.8245 48.3899 15.88 48.672 15.9904L49.4036 14.1209C48.8854 13.9181 48.3437 13.817 47.7851 13.817V15.8245ZM48.672 15.9904C48.9135 16.0849 49.0628 16.2084 49.1636 16.348L50.7911 15.1726C50.4396 14.6859 49.9625 14.3396 49.4036 14.1209L48.672 15.9904ZM49.0928 15.2858L47.553 18.1567L49.3221 19.1056L50.8619 16.2347L49.0928 15.2858ZM56.3884 32.8287V33.8324H57.3922V32.8287H56.3884ZM52.9956 32.8287H51.9918V33.8324H52.9956V32.8287ZM52.9956 15.0817V14.078H51.9918V15.0817H52.9956ZM56.3884 15.0817H57.3922V14.078H56.3884V15.0817ZM56.3884 17.0391H55.3846V20.688L57.2509 17.5525L56.3884 17.0391ZM58.0587 15.3427L58.5686 16.2074L58.5751 16.2035L58.0587 15.3427ZM63.2784 15.4471L62.7879 16.323L62.7953 16.327L63.2784 15.4471ZM65.4184 17.6133L64.544 18.1062L64.5493 18.1156L64.5549 18.125L65.4184 17.6133ZM65.4184 24.5816L64.5508 24.0768L64.5479 24.0818L65.4184 24.5816ZM63.2784 26.7216L62.7953 25.8417L62.7879 25.8458L63.2784 26.7216ZM58.0587 26.8521L57.5326 27.707L57.5454 27.7148L57.5583 27.7223L58.0587 26.8521ZM56.3884 25.1296L57.2509 24.6162L55.3846 21.4808V25.1296H56.3884ZM61.7386 18.605L61.0602 19.345L61.0704 19.3541L61.7386 18.605ZM58.0326 18.1353L58.4946 19.0264L58.5075 19.0197L58.5201 19.0127L58.0326 18.1353ZM56.8582 19.2575L57.7025 19.8003L57.7068 19.7936L57.711 19.7868L56.8582 19.2575ZM56.8582 22.9374L56.0053 23.4667L56.0095 23.4735L56.0138 23.4802L56.8582 22.9374ZM58.0326 24.0596L57.5451 24.9371L57.5577 24.9441L57.5705 24.9507L58.0326 24.0596ZM61.7386 23.5637L62.4168 24.3037L62.4177 24.3028L61.7386 23.5637ZM56.3884 31.8249H52.9956V33.8324H56.3884V31.8249ZM53.9994 32.8287V15.0817H51.9918V32.8287H53.9994ZM52.9956 16.0855H56.3884V14.078H52.9956V16.0855ZM55.3846 15.0817V17.0391H57.3922V15.0817H55.3846ZM57.2509 17.5525C57.6068 16.9548 58.0466 16.5152 58.5686 16.2073L57.5488 14.4781C56.7136 14.9706 56.04 15.662 55.5258 16.5257L57.2509 17.5525ZM58.5751 16.2035C59.0977 15.8899 59.7155 15.7201 60.4597 15.7201V13.7126C59.3945 13.7126 58.4116 13.9604 57.5422 14.482L58.5751 16.2035ZM60.4597 15.7201C61.2993 15.7201 62.0697 15.9207 62.7879 16.3229L63.7688 14.5713C62.7471 13.9992 61.6384 13.7126 60.4597 13.7126V15.7201ZM62.7953 16.327C63.5048 16.7165 64.0883 17.2978 64.544 18.1062L66.2929 17.1204C65.6698 16.0149 64.8267 15.152 63.7614 14.5672L62.7953 16.327ZM64.5549 18.125C64.9989 18.8743 65.2498 19.8439 65.2498 21.0844H67.2574C67.2574 19.5758 66.9515 18.2313 66.282 17.1015L64.5549 18.125ZM65.2498 21.0844C65.2498 22.324 64.9992 23.306 64.5508 24.0768L66.2861 25.0864C66.9512 23.9432 67.2574 22.5938 67.2574 21.0844H65.2498ZM64.5479 24.0818C64.0936 24.8731 63.5096 25.4496 62.7953 25.8417L63.7614 27.6015C64.8218 27.0194 65.6645 26.1691 66.289 25.0813L64.5479 24.0818ZM62.7879 25.8458C62.0697 26.248 61.2993 26.4486 60.4597 26.4486V28.4562C61.6384 28.4562 62.7471 28.1696 63.7688 27.5974L62.7879 25.8458ZM60.4597 26.4486C59.7079 26.4486 59.0842 26.2839 58.559 25.9819L57.5583 27.7223C58.4251 28.2207 59.4021 28.4562 60.4597 28.4562V26.4486ZM58.5848 25.9972C58.0535 25.6703 57.6087 25.2173 57.2509 24.6162L55.5258 25.643C56.038 26.5035 56.7067 27.1988 57.5326 27.707L58.5848 25.9972ZM55.3846 25.1296V32.8287H57.3922V25.1296H55.3846ZM63.708 21.0844C63.708 19.7966 63.3155 18.6664 62.4067 17.8559L61.0704 19.3541C61.4492 19.6919 61.7004 20.2146 61.7004 21.0844H63.708ZM62.4168 17.8651C61.5965 17.1131 60.5942 16.74 59.468 16.74V18.7476C60.1164 18.7476 60.6279 18.9486 61.0603 19.345L62.4168 17.8651ZM59.468 16.74C58.7931 16.74 58.1483 16.9227 57.5451 17.2578L58.5201 19.0127C58.8564 18.8258 59.1685 18.7476 59.468 18.7476V16.74ZM57.5705 17.2441C56.9213 17.5808 56.4019 18.0892 56.0053 18.7281L57.711 19.7868C57.9408 19.4166 58.2043 19.1769 58.4946 19.0264L57.5705 17.2441ZM56.0138 18.7147C55.5724 19.4013 55.3846 20.2113 55.3846 21.0844H57.3922C57.3922 20.496 57.5176 20.088 57.7025 19.8003L56.0138 18.7147ZM55.3846 21.0844C55.3846 21.9591 55.573 22.7702 56.0053 23.4667L57.711 22.408C57.517 22.0954 57.3922 21.6712 57.3922 21.0844H55.3846ZM56.0138 23.4802C56.4094 24.0955 56.9195 24.5895 57.5451 24.9371L58.5201 23.1821C58.2062 23.0077 57.9333 22.7536 57.7025 22.3946L56.0138 23.4802ZM57.5705 24.9507C58.1705 25.2618 58.8064 25.4288 59.468 25.4288V23.4212C59.1552 23.4212 58.8342 23.3446 58.4946 23.1685L57.5705 24.9507ZM59.468 25.4288C60.5942 25.4288 61.5965 25.0556 62.4168 24.3037L61.0603 22.8238C60.6279 23.2201 60.1164 23.4212 59.468 23.4212V25.4288ZM62.4177 24.3028C63.3118 23.4813 63.708 22.3617 63.708 21.0844H61.7004C61.7004 21.9297 61.4528 22.463 61.0594 22.8246L62.4177 24.3028ZM78.9521 19.9099H77.9483V20.9137H78.9521V19.9099ZM78.9521 17.8221V16.8183H77.9483V17.8221H78.9521ZM87.4341 17.8221H88.4379V16.8183H87.4341V17.8221ZM86.8599 21.4497L87.8107 21.7716L87.8122 21.7672L86.8599 21.4497ZM85.1635 24.4772L84.3961 23.8301L85.1635 24.4772ZM82.3971 26.5911L82.8224 27.5004L82.8287 27.4974L82.3971 26.5911ZM75.0112 26.6694L74.6261 27.5965L74.6384 27.6014L75.0112 26.6694ZM72.0621 24.712L71.345 25.4145L71.3523 25.4218L72.0621 24.712ZM70.1047 21.7107L69.1707 22.0787L69.1757 22.0908L70.1047 21.7107ZM70.1047 14.1944L69.1756 13.8143L69.1708 13.8265L70.1047 14.1944ZM72.0621 11.2192L72.7719 11.929L72.7792 11.9216L72.0621 11.2192ZM75.0112 9.26179L75.3841 10.1939L75.3963 10.1888L75.0112 9.26179ZM83.1539 9.54887L82.6954 10.4418L82.7003 10.4443L83.1539 9.54887ZM86.2858 12.4458L86.964 13.1857L87.5755 12.6252L87.1402 11.9191L86.2858 12.4458ZM84.7198 13.8812L83.855 14.3908L84.4844 15.4588L85.3981 14.6212L84.7198 13.8812ZM82.3188 11.6106L81.8402 12.4931L81.8519 12.4992L82.3188 11.6106ZM75.1939 11.6889L74.6881 10.8219L75.1939 11.6889ZM72.6885 14.2205L71.8204 13.7164L71.8178 13.7209L72.6885 14.2205ZM72.6885 21.6846L71.8143 22.1781L71.8204 22.1887L72.6885 21.6846ZM81.8229 24.425L82.2999 25.3082L82.3067 25.3045L82.3134 25.3008L81.8229 24.425ZM83.9369 22.5198L84.7636 23.0893L84.7693 23.0808L83.9369 22.5198ZM85.033 19.9099L86.0166 20.1103L86.2619 18.9062H85.033V19.9099ZM79.9559 19.9099V17.8221H77.9483V19.9099H79.9559ZM78.9521 18.8259H87.4341V16.8183H78.9521V18.8259ZM86.4303 17.8221C86.4303 18.9897 86.2546 20.0913 85.9076 21.1323L87.8122 21.7672C88.2307 20.5115 88.4379 19.1947 88.4379 17.8221H86.4303ZM85.9091 21.1279C85.5654 22.1434 85.061 23.0415 84.3961 23.8301L85.9309 25.1242C86.7624 24.1381 87.3889 23.0179 87.8107 21.7716L85.9091 21.1279ZM84.3961 23.8301C83.7444 24.6031 82.9386 25.2215 81.9655 25.6849L82.8287 27.4974C84.0478 26.9168 85.0863 26.1259 85.9309 25.1242L84.3961 23.8301ZM81.9718 25.6819C81.0468 26.1145 79.9607 26.3442 78.6911 26.3442V28.3518C80.2054 28.3518 81.5899 28.0769 82.8224 27.5004L81.9718 25.6819ZM78.6911 26.3442C77.4855 26.3442 76.3866 26.1385 75.384 25.7374L74.6384 27.6014C75.8977 28.1051 77.2521 28.3518 78.6911 28.3518V26.3442ZM75.3963 25.7424C74.3822 25.3212 73.5106 24.741 72.7719 24.0023L71.3523 25.4218C72.2839 26.3534 73.3784 27.0781 74.6262 27.5964L75.3963 25.7424ZM72.7792 24.0096C72.0385 23.2535 71.4564 22.3637 71.0338 21.3307L69.1757 22.0908C69.6926 23.3544 70.4155 24.4655 71.3451 25.4145L72.7792 24.0096ZM71.0387 21.3428C70.6368 20.3228 70.43 19.1963 70.43 17.9526H68.4224C68.4224 19.4231 68.6679 20.802 69.1708 22.0786L71.0387 21.3428ZM70.43 17.9526C70.43 16.7088 70.6368 15.5823 71.0387 14.5623L69.1708 13.8265C68.6679 15.1031 68.4224 16.4821 68.4224 17.9526H70.43ZM71.0338 14.5745C71.4557 13.5432 72.0357 12.6651 72.7719 11.929L71.3523 10.5094C70.4182 11.4435 69.6933 12.549 69.1757 13.8143L71.0338 14.5745ZM72.7792 11.9216C73.5147 11.1707 74.3798 10.5955 75.384 10.1938L74.6384 8.3298C73.3808 8.83286 72.2798 9.56251 71.3451 10.5167L72.7792 11.9216ZM75.3963 10.1888C76.3957 9.77363 77.4903 9.56092 78.6911 9.56092V7.55335C77.2473 7.55335 75.8886 7.8104 74.6262 8.3348L75.3963 10.1888ZM78.6911 9.56092C80.2458 9.56092 81.5716 9.86471 82.6954 10.4418L83.6125 8.65594C82.1613 7.91072 80.5118 7.55335 78.6911 7.55335V9.56092ZM82.7003 10.4443C83.8367 11.0201 84.7434 11.8566 85.4313 12.9725L87.1402 11.9191C86.2622 10.4948 85.081 9.39997 83.6076 8.65346L82.7003 10.4443ZM85.6075 11.7059L84.0416 13.1413L85.3981 14.6212L86.964 13.1857L85.6075 11.7059ZM85.5846 13.3716C84.9132 12.2321 83.9731 11.346 82.7857 10.7221L81.8519 12.4992C82.7176 12.9541 83.3782 13.5816 83.855 14.3908L85.5846 13.3716ZM82.7974 10.7283C81.5981 10.0779 80.2182 9.77171 78.6911 9.77171V11.7793C79.9479 11.7793 80.9864 12.0299 81.8402 12.493L82.7974 10.7283ZM78.6911 9.77171C77.2379 9.77171 75.8957 10.1175 74.6881 10.8219L75.6997 12.556C76.58 12.0425 77.5693 11.7793 78.6911 11.7793V9.77171ZM74.6881 10.8219C73.4891 11.5213 72.5311 12.4924 71.8204 13.7165L73.5565 14.7245C74.0985 13.7911 74.8109 13.0745 75.6997 12.556L74.6881 10.8219ZM71.8178 13.7209C71.1081 14.9579 70.7712 16.3799 70.7712 17.9526H72.7788C72.7788 16.6718 73.0509 15.6058 73.5591 14.72L71.8178 13.7209ZM70.7712 17.9526C70.7712 19.5106 71.1093 20.929 71.8144 22.1781L73.5626 21.1912C73.0498 20.2828 72.7788 19.2131 72.7788 17.9526H70.7712ZM71.8204 22.1887C72.5311 23.4127 73.4891 24.3838 74.6881 25.0832L75.6997 23.3491C74.8109 22.8307 74.0985 22.114 73.5565 21.1806L71.8204 22.1887ZM74.6881 25.0832C75.8957 25.7876 77.2379 26.1334 78.6911 26.1334V24.1258C77.5693 24.1258 76.58 23.8627 75.6997 23.3491L74.6881 25.0832ZM78.6911 26.1334C80.0374 26.1334 81.2532 25.8734 82.2999 25.3082L81.346 23.5417C80.6528 23.9161 79.7806 24.1258 78.6911 24.1258V26.1334ZM82.3134 25.3008C83.3106 24.7423 84.1328 24.0049 84.7635 23.0892L83.1103 21.9503C82.6623 22.6006 82.0751 23.1333 81.3325 23.5492L82.3134 25.3008ZM84.7693 23.0808C85.3817 22.172 85.7988 21.1797 86.0166 20.1103L84.0494 19.7096C83.8845 20.5193 83.5708 21.2669 83.1045 21.9588L84.7693 23.0808ZM85.033 18.9062H78.9521V20.9137H85.033V18.9062ZM91.6461 17.8482L90.7825 17.3364L90.7756 17.3484L91.6461 17.8482ZM93.8906 15.6298L94.3903 16.5003L93.8906 15.6298ZM100.206 15.6298L99.6996 16.4963L99.7066 16.5003L100.206 15.6298ZM102.425 17.8482L101.554 18.348L101.561 18.3599L102.425 17.8482ZM102.425 24.3206L101.557 23.8158L101.554 23.8208L102.425 24.3206ZM100.206 26.5389L99.7066 25.6684L99.6996 25.6725L100.206 26.5389ZM93.8906 26.5389L94.3903 25.6684L93.8906 26.5389ZM91.6461 24.3206L90.7717 24.8134L90.777 24.8229L90.7826 24.8323L91.6461 24.3206ZM93.473 23.3027L92.59 23.7801L92.5949 23.7892L92.6 23.7982L93.473 23.3027ZM94.9345 24.8425L94.4003 25.6924L94.4144 25.7012L94.4287 25.7096L94.9345 24.8425ZM99.1364 24.8425L99.6528 25.7033L99.6598 25.6991L99.1364 24.8425ZM100.598 23.3027L99.7249 22.8073L99.7198 22.8163L99.7148 22.8254L100.598 23.3027ZM100.598 18.866L99.7096 19.3335L99.717 19.3476L99.7249 19.3615L100.598 18.866ZM99.1364 17.3262L98.6199 18.187L98.6306 18.1932L99.1364 17.3262ZM94.9345 17.3262L94.4287 16.4591L94.4181 16.4655L94.9345 17.3262ZM93.473 18.866L92.5944 18.3805L92.59 18.3887L93.473 18.866ZM91.8409 21.0844C91.8409 20.0196 92.075 19.1172 92.5167 18.3479L90.7756 17.3484C90.1385 18.4582 89.8333 19.7133 89.8333 21.0844H91.8409ZM92.5097 18.3599C92.9789 17.5681 93.6022 16.9528 94.3903 16.5003L93.3908 14.7593C92.2998 15.3856 91.4269 16.2492 90.7826 17.3364L92.5097 18.3599ZM94.3903 16.5003C95.1663 16.0549 96.0443 15.8245 97.0485 15.8245V13.817C95.7212 13.817 94.494 14.126 93.3908 14.7593L94.3903 16.5003ZM97.0485 15.8245C98.0731 15.8245 98.9473 16.0562 99.6996 16.4963L100.713 14.7633C99.6212 14.1246 98.3901 13.817 97.0485 13.817V15.8245ZM99.7066 16.5003C100.492 16.9511 101.103 17.5626 101.554 18.3479L103.295 17.3484C102.667 16.2546 101.8 15.3872 100.706 14.7593L99.7066 16.5003ZM101.561 18.3599C102.016 19.1272 102.256 20.0252 102.256 21.0844H104.264C104.264 19.7076 103.947 18.4482 103.288 17.3364L101.561 18.3599ZM102.256 21.0844C102.256 22.123 102.017 23.0249 101.557 23.8158L103.292 24.8254C103.946 23.7023 104.264 22.4468 104.264 21.0844H102.256ZM101.554 23.8208C101.103 24.6061 100.492 25.2176 99.7066 25.6684L100.706 27.4095C101.8 26.7815 102.667 25.9141 103.295 24.8203L101.554 23.8208ZM99.6996 25.6725C98.9473 26.1125 98.0731 26.3442 97.0485 26.3442V28.3518C98.3901 28.3518 99.6212 28.0441 100.713 27.4054L99.6996 25.6725ZM97.0485 26.3442C96.0443 26.3442 95.1663 26.1139 94.3903 25.6684L93.3908 27.4095C94.494 28.0428 95.7212 28.3518 97.0485 28.3518V26.3442ZM94.3903 25.6684C93.6022 25.216 92.9789 24.6007 92.5097 23.8088L90.7826 24.8323C91.4269 25.9196 92.2998 26.7832 93.3908 27.4095L94.3903 25.6684ZM92.5206 23.8277C92.0737 23.0349 91.8409 22.1287 91.8409 21.0844H89.8333C89.8333 22.4411 90.1398 23.6923 90.7717 24.8134L92.5206 23.8277ZM91.9473 21.0844C91.9473 22.0624 92.1521 22.9701 92.59 23.7801L94.356 22.8254C94.0979 22.3479 93.9548 21.7766 93.9548 21.0844H91.9473ZM92.6 23.7982C93.0448 24.5819 93.6467 25.2187 94.4003 25.6924L95.4687 23.9927C95.0044 23.7009 94.6319 23.3111 94.346 22.8073L92.6 23.7982ZM94.4287 25.7096C95.2208 26.1716 96.1025 26.3944 97.0485 26.3944V24.3868C96.4286 24.3868 95.901 24.2442 95.4403 23.9755L94.4287 25.7096ZM97.0485 26.3944C97.9942 26.3944 98.8722 26.1717 99.6528 25.7033L98.6199 23.9818C98.1826 24.2442 97.6687 24.3868 97.0485 24.3868V26.3944ZM99.6598 25.6991C100.437 25.2241 101.048 24.5803 101.481 23.7801L99.7148 22.8254C99.4514 23.3127 99.0885 23.6954 98.6129 23.986L99.6598 25.6991ZM101.471 23.7982C101.933 22.9848 102.15 22.0705 102.15 21.0844H100.142C100.142 21.7685 99.994 22.3331 99.7249 22.8073L101.471 23.7982ZM102.15 21.0844C102.15 20.0982 101.933 19.1839 101.471 18.3705L99.7249 19.3615C99.994 19.8356 100.142 20.4002 100.142 21.0844H102.15ZM101.486 18.3985C101.053 17.5763 100.436 16.9222 99.6421 16.4592L98.6306 18.1932C99.0894 18.4609 99.4464 18.8334 99.7096 19.3335L101.486 18.3985ZM99.6528 16.4655C98.8722 15.9971 97.9942 15.7743 97.0485 15.7743V17.7819C97.6687 17.7819 98.1826 17.9246 98.6199 18.1869L99.6528 16.4655ZM97.0485 15.7743C96.1025 15.7743 95.2208 15.9971 94.4287 16.4592L95.4403 18.1932C95.901 17.9245 96.4286 17.7819 97.0485 17.7819V15.7743ZM94.4181 16.4655C93.6477 16.9277 93.0397 17.5748 92.5945 18.3805L94.3516 19.3515C94.637 18.8349 95.0034 18.4555 95.451 18.1869L94.4181 16.4655ZM92.59 18.3887C92.1521 19.1987 91.9473 20.1064 91.9473 21.0844H93.9548C93.9548 20.3921 94.0979 19.8209 94.356 19.3433L92.59 18.3887ZM107.198 17.8482L106.334 17.3364L106.328 17.3484L107.198 17.8482ZM109.443 15.6298L109.942 16.5003L109.443 15.6298ZM115.758 15.6298L115.252 16.4963L115.259 16.5003L115.758 15.6298ZM117.977 17.8482L117.106 18.348L117.113 18.3599L117.977 17.8482ZM117.977 24.3206L117.109 23.8158L117.106 23.8208L117.977 24.3206ZM115.758 26.5389L115.259 25.6684L115.252 25.6725L115.758 26.5389ZM109.443 26.5389L109.942 25.6684L109.443 26.5389ZM107.198 24.3206L106.324 24.8134L106.329 24.8229L106.335 24.8323L107.198 24.3206ZM109.025 23.3027L108.142 23.7801L108.147 23.7892L108.152 23.7982L109.025 23.3027ZM110.487 24.8425L109.952 25.6924L109.966 25.7012L109.981 25.7096L110.487 24.8425ZM114.688 24.8425L115.205 25.7033L115.212 25.6991L114.688 24.8425ZM116.15 23.3027L115.277 22.8073L115.272 22.8163L115.267 22.8254L116.15 23.3027ZM116.15 18.866L115.262 19.3335L115.269 19.3476L115.277 19.3615L116.15 18.866ZM114.688 17.3262L114.172 18.187L114.183 18.1932L114.688 17.3262ZM110.487 17.3262L109.981 16.4591L109.97 16.4655L110.487 17.3262ZM109.025 18.866L108.146 18.3805L108.142 18.3887L109.025 18.866ZM107.393 21.0844C107.393 20.0196 107.627 19.1172 108.069 18.3479L106.328 17.3484C105.69 18.4582 105.385 19.7133 105.385 21.0844H107.393ZM108.062 18.3599C108.531 17.5681 109.154 16.9528 109.942 16.5003L108.943 14.7593C107.852 15.3856 106.979 16.2492 106.335 17.3364L108.062 18.3599ZM109.942 16.5003C110.718 16.0549 111.596 15.8245 112.6 15.8245V13.817C111.273 13.817 110.046 14.126 108.943 14.7593L109.942 16.5003ZM112.6 15.8245C113.625 15.8245 114.499 16.0562 115.252 16.4963L116.265 14.7633C115.173 14.1246 113.942 13.817 112.6 13.817V15.8245ZM115.259 16.5003C116.044 16.9511 116.655 17.5626 117.106 18.3479L118.847 17.3484C118.219 16.2546 117.352 15.3872 116.258 14.7593L115.259 16.5003ZM117.113 18.3599C117.568 19.1272 117.808 20.0252 117.808 21.0844H119.816C119.816 19.7076 119.499 18.4482 118.84 17.3364L117.113 18.3599ZM117.808 21.0844C117.808 22.123 117.569 23.0249 117.109 23.8158L118.844 24.8254C119.498 23.7023 119.816 22.4468 119.816 21.0844H117.808ZM117.106 23.8208C116.655 24.6061 116.044 25.2176 115.259 25.6684L116.258 27.4095C117.352 26.7815 118.219 25.9141 118.847 24.8203L117.106 23.8208ZM115.252 25.6725C114.499 26.1125 113.625 26.3442 112.6 26.3442V28.3518C113.942 28.3518 115.173 28.0441 116.265 27.4054L115.252 25.6725ZM112.6 26.3442C111.596 26.3442 110.718 26.1139 109.942 25.6684L108.943 27.4095C110.046 28.0428 111.273 28.3518 112.6 28.3518V26.3442ZM109.942 25.6684C109.154 25.216 108.531 24.6007 108.062 23.8088L106.335 24.8323C106.979 25.9196 107.852 26.7832 108.943 27.4095L109.942 25.6684ZM108.073 23.8277C107.626 23.0349 107.393 22.1287 107.393 21.0844H105.385C105.385 22.4411 105.692 23.6923 106.324 24.8134L108.073 23.8277ZM107.499 21.0844C107.499 22.0624 107.704 22.9701 108.142 23.7801L109.908 22.8254C109.65 22.3479 109.507 21.7766 109.507 21.0844H107.499ZM108.152 23.7982C108.597 24.5819 109.199 25.2187 109.952 25.6924L111.021 23.9927C110.556 23.7009 110.184 23.3111 109.898 22.8073L108.152 23.7982ZM109.981 25.7096C110.773 26.1716 111.654 26.3944 112.6 26.3944V24.3868C111.981 24.3868 111.453 24.2442 110.992 23.9755L109.981 25.7096ZM112.6 26.3944C113.546 26.3944 114.424 26.1717 115.205 25.7033L114.172 23.9818C113.735 24.2442 113.221 24.3868 112.6 24.3868V26.3944ZM115.212 25.6991C115.989 25.2241 116.6 24.5803 117.033 23.7801L115.267 22.8254C115.003 23.3127 114.641 23.6954 114.165 23.986L115.212 25.6991ZM117.023 23.7982C117.485 22.9848 117.702 22.0705 117.702 21.0844H115.694C115.694 21.7685 115.546 22.3331 115.277 22.8073L117.023 23.7982ZM117.702 21.0844C117.702 20.0982 117.485 19.1839 117.023 18.3705L115.277 19.3615C115.546 19.8356 115.694 20.4002 115.694 21.0844H117.702ZM117.038 18.3985C116.605 17.5763 115.988 16.9222 115.194 16.4592L114.183 18.1932C114.641 18.4609 114.998 18.8334 115.262 19.3335L117.038 18.3985ZM115.205 16.4655C114.424 15.9971 113.546 15.7743 112.6 15.7743V17.7819C113.221 17.7819 113.735 17.9246 114.172 18.1869L115.205 16.4655ZM112.6 15.7743C111.654 15.7743 110.773 15.9971 109.981 16.4592L110.992 18.1932C111.453 17.9245 111.981 17.7819 112.6 17.7819V15.7743ZM109.97 16.4655C109.2 16.9277 108.592 17.5748 108.146 18.3805L109.904 19.3515C110.189 18.8349 110.555 18.4555 111.003 18.1869L109.97 16.4655ZM108.142 18.3887C107.704 19.1987 107.499 20.1064 107.499 21.0844H109.507C109.507 20.3921 109.65 19.8209 109.908 19.3433L108.142 18.3887ZM122.75 17.7438L123.617 18.2506L123.621 18.2435L122.75 17.7438ZM124.916 15.5776L125.405 16.4543L124.916 15.5776ZM130.266 15.421L129.766 16.2913L129.775 16.2965L130.266 15.421ZM131.989 17.1435L131.121 17.648L132.993 20.8671V17.1435H131.989ZM131.989 6.73024V5.72646H130.985V6.73024H131.989ZM134.077 6.73024H135.081V5.72646H134.077V6.73024ZM134.077 27.087V28.0908H135.081V27.087H134.077ZM131.989 27.087H130.985V28.0908H131.989V27.087ZM131.989 25.0252H132.993V21.3016L131.121 24.5207L131.989 25.0252ZM130.266 26.7477L129.775 25.8722L129.766 25.8775L130.266 26.7477ZM124.916 26.5911L125.405 25.7145L124.916 26.5911ZM122.75 24.425L123.621 23.9252L122.75 24.425ZM124.603 23.4332L123.73 23.9287L123.735 23.9375L123.74 23.9462L124.603 23.4332ZM129.953 24.8947L129.464 24.0185L129.953 24.8947ZM131.415 23.4332L132.278 23.9462L131.415 23.4332ZM131.415 18.7355L132.278 18.2225L131.415 18.7355ZM129.953 17.274L129.464 18.1502L129.953 17.274ZM124.603 18.7355L123.74 18.2225L123.735 18.2312L123.73 18.24L124.603 18.7355ZM122.945 21.0844C122.945 19.9183 123.185 18.9882 123.617 18.2506L121.884 17.237C121.236 18.3436 120.937 19.6406 120.937 21.0844H122.945ZM123.621 18.2435C124.074 17.4544 124.667 16.866 125.405 16.4543L124.427 14.7009C123.356 15.2984 122.505 16.1541 121.88 17.244L123.621 18.2435ZM125.405 16.4543C126.154 16.0366 126.977 15.8245 127.892 15.8245V13.817C126.649 13.817 125.488 14.1095 124.427 14.7009L125.405 16.4543ZM127.892 15.8245C128.622 15.8245 129.238 15.9875 129.766 16.2912L130.767 14.5508C129.903 14.0541 128.935 13.817 127.892 13.817V15.8245ZM129.775 16.2965C130.323 16.6037 130.771 17.0456 131.121 17.648L132.857 16.639C132.337 15.7451 131.637 15.0387 130.758 14.5456L129.775 16.2965ZM132.993 17.1435V6.73024H130.985V17.1435H132.993ZM131.989 7.73403H134.077V5.72646H131.989V7.73403ZM133.073 6.73024V27.087H135.081V6.73024H133.073ZM134.077 26.0832H131.989V28.0908H134.077V26.0832ZM132.993 27.087V25.0252H130.985V27.087H132.993ZM131.121 24.5207C130.771 25.1231 130.323 25.565 129.775 25.8723L130.758 27.6232C131.637 27.1301 132.337 26.4236 132.857 25.5298L131.121 24.5207ZM129.766 25.8775C129.238 26.1812 128.622 26.3442 127.892 26.3442V28.3518C128.935 28.3518 129.903 28.1146 130.767 27.6179L129.766 25.8775ZM127.892 26.3442C126.977 26.3442 126.154 26.1322 125.405 25.7145L124.427 27.4678C125.488 28.0592 126.649 28.3518 127.892 28.3518V26.3442ZM125.405 25.7145C124.667 25.3027 124.074 24.7144 123.621 23.9252L121.88 24.9247C122.505 26.0146 123.356 26.8704 124.427 27.4678L125.405 25.7145ZM123.621 23.9252C123.184 23.1641 122.945 22.2297 122.945 21.0844H120.937C120.937 22.5141 121.238 23.8067 121.88 24.9247L123.621 23.9252ZM123.051 21.0844C123.051 22.138 123.26 23.101 123.73 23.9287L125.476 22.9378C125.215 22.4779 125.059 21.875 125.059 21.0844H123.051ZM123.74 23.9462C124.212 24.7393 124.849 25.3606 125.648 25.7825L126.585 24.007C126.132 23.7677 125.76 23.4147 125.466 22.9202L123.74 23.9462ZM125.648 25.7825C126.424 26.1917 127.264 26.3944 128.152 26.3944V24.3868C127.58 24.3868 127.063 24.2589 126.585 24.007L125.648 25.7825ZM128.152 26.3944C128.952 26.3944 129.719 26.1756 130.443 25.771L129.464 24.0185C129.004 24.2751 128.571 24.3868 128.152 24.3868V26.3944ZM130.443 25.771C131.205 25.3454 131.814 24.7254 132.278 23.9462L130.552 22.9202C130.25 23.4286 129.885 23.7829 129.464 24.0185L130.443 25.771ZM132.278 23.9462C132.772 23.1151 132.993 22.1455 132.993 21.0844H130.985C130.985 21.8675 130.823 22.4639 130.552 22.9202L132.278 23.9462ZM132.993 21.0844C132.993 20.0232 132.772 19.0537 132.278 18.2225L130.552 19.2485C130.823 19.7049 130.985 20.3012 130.985 21.0844H132.993ZM132.278 18.2225C131.814 17.4433 131.205 16.8233 130.443 16.3978L129.464 18.1502C129.885 18.3858 130.25 18.7402 130.552 19.2485L132.278 18.2225ZM130.443 16.3978C129.719 15.9932 128.952 15.7743 128.152 15.7743V17.7819C128.571 17.7819 129.004 17.8937 129.464 18.1502L130.443 16.3978ZM128.152 15.7743C127.264 15.7743 126.424 15.977 125.648 16.3863L126.585 18.1617C127.063 17.9098 127.58 17.7819 128.152 17.7819V15.7743ZM125.648 16.3863C124.849 16.8081 124.212 17.4295 123.74 18.2225L125.466 19.2485C125.76 18.754 126.132 18.401 126.585 18.1617L125.648 16.3863ZM123.73 18.24C123.26 19.0677 123.051 20.0307 123.051 21.0844H125.059C125.059 20.2938 125.215 19.6908 125.476 19.231L123.73 18.24ZM139.67 23.4071L140.509 22.8564L139.973 22.0391L139.142 22.5536L139.67 23.4071ZM141.001 24.8425L140.39 25.6392L140.397 25.644L140.403 25.6487L141.001 24.8425ZM144.316 25.0513L144.938 25.8392L144.943 25.8352L144.316 25.0513ZM144.42 22.8852L143.667 23.5493L143.688 23.5728L143.71 23.5949L144.42 22.8852ZM143.402 22.1544L142.953 23.0522L142.968 23.0598L142.984 23.0669L143.402 22.1544ZM142.071 21.5802L141.698 22.5122L141.71 22.517L141.722 22.5215L142.071 21.5802ZM140.479 20.8495L139.984 21.7228L140.001 21.7325L140.019 21.7415L140.479 20.8495ZM139.148 19.7273L138.341 20.3247L138.354 20.3416L138.367 20.358L139.148 19.7273ZM139.174 16.204L138.396 15.5699L138.389 15.5787L138.382 15.5877L139.174 16.204ZM140.636 15.16L140.286 14.219L140.277 14.2224L140.636 15.16ZM145.125 15.4993L145.627 14.6302L145.125 15.4993ZM146.847 17.1696L147.389 18.0148L148.181 17.5074L147.726 16.6841L146.847 17.1696ZM145.177 18.2396L144.366 18.8319L144.923 19.5941L145.718 19.0849L145.177 18.2396ZM143.924 17.1174L143.403 17.9754L143.41 17.9795L143.416 17.9834L143.924 17.1174ZM141.419 19.0487L140.889 19.9016L140.906 19.9121L140.924 19.922L141.419 19.0487ZM143.167 19.8838L142.79 20.8141L142.794 20.8158L143.167 19.8838ZM145.072 20.7973L144.572 21.6672L144.582 21.673L144.592 21.6785L145.072 20.7973ZM146.43 21.9456L145.619 22.5379L145.626 22.5478L145.634 22.5576L146.43 21.9456ZM145.803 26.3041L145.128 25.5613L145.119 25.5691L145.803 26.3041ZM140.662 26.9304L140.243 27.8425L140.253 27.8473L140.263 27.8517L140.662 26.9304ZM139.018 25.8082L138.294 26.5039L138.301 26.511L138.308 26.518L139.018 25.8082ZM138.026 24.425L137.497 23.5715L136.73 24.0468L137.121 24.8604L138.026 24.425ZM138.831 23.9579C139.257 24.6076 139.778 25.1696 140.39 25.6392L141.612 24.0459C141.18 23.7152 140.814 23.3202 140.509 22.8564L138.831 23.9579ZM140.403 25.6487C141.135 26.1918 141.995 26.4466 142.932 26.4466V24.439C142.374 24.439 141.946 24.2937 141.599 24.0364L140.403 25.6487ZM142.932 26.4466C143.66 26.4466 144.37 26.2869 144.938 25.8392L143.694 24.2635C143.6 24.3377 143.388 24.439 142.932 24.439V26.4466ZM144.943 25.8352C145.543 25.3547 145.841 24.6847 145.841 23.9291H143.834C143.834 24.113 143.784 24.1912 143.689 24.2675L144.943 25.8352ZM145.841 23.9291C145.841 23.2632 145.609 22.6543 145.13 22.1754L143.71 23.5949C143.788 23.6728 143.834 23.7598 143.834 23.9291H145.841ZM145.173 22.221C144.805 21.8041 144.345 21.4822 143.82 21.2419L142.984 23.0669C143.295 23.2093 143.513 23.3747 143.667 23.5493L145.173 22.221ZM143.851 21.2566C143.399 21.0304 142.921 20.8247 142.42 20.6389L141.722 22.5215C142.161 22.6838 142.571 22.8609 142.953 23.0522L143.851 21.2566ZM142.444 20.6482C141.954 20.4523 141.453 20.2223 140.939 19.9575L140.019 21.7415C140.584 22.0334 141.144 22.2906 141.698 22.5122L142.444 20.6482ZM140.974 19.9762C140.558 19.7406 140.213 19.4477 139.929 19.0965L138.367 20.358C138.814 20.9116 139.356 21.3668 139.984 21.7228L140.974 19.9762ZM139.955 19.1298C139.758 18.864 139.63 18.5017 139.63 17.9787H137.622C137.622 18.8476 137.842 19.651 138.341 20.3247L139.955 19.1298ZM139.63 17.9787C139.63 17.4427 139.764 17.0808 139.967 16.8202L138.382 15.5877C137.854 16.2667 137.622 17.0879 137.622 17.9787H139.63ZM139.952 16.838C140.219 16.5107 140.559 16.264 140.994 16.0976L140.277 14.2224C139.529 14.5084 138.895 14.9577 138.396 15.5699L139.952 16.838ZM140.985 16.101C141.483 15.916 141.991 15.8245 142.515 15.8245V13.817C141.751 13.817 141.006 13.9517 140.286 14.2191L140.985 16.101ZM142.515 15.8245C143.306 15.8245 144.001 16.0095 144.622 16.3685L145.627 14.6302C144.682 14.0844 143.637 13.817 142.515 13.817V15.8245ZM144.622 16.3685C145.279 16.7476 145.707 17.1826 145.969 17.6551L147.726 16.6841C147.256 15.8343 146.536 15.1557 145.627 14.6302L144.622 16.3685ZM146.306 16.3244L144.635 17.3944L145.718 19.0849L147.389 18.0148L146.306 16.3244ZM145.987 17.6474C145.572 17.0791 145.05 16.6137 144.432 16.2514L143.416 17.9834C143.808 18.2127 144.12 18.4954 144.366 18.8319L145.987 17.6474ZM144.445 16.2594C143.786 15.859 143.045 15.67 142.254 15.67V17.6775C142.715 17.6775 143.088 17.7843 143.403 17.9754L144.445 16.2594ZM142.254 15.67C141.669 15.67 141.106 15.8001 140.608 16.1043L141.655 17.8173C141.783 17.7388 141.969 17.6775 142.254 17.6775V15.67ZM140.608 16.1043C139.966 16.497 139.658 17.1363 139.658 17.8482H141.666C141.666 17.8134 141.669 17.7945 141.67 17.788C141.672 17.7821 141.671 17.7862 141.666 17.7959C141.664 17.8004 141.661 17.8052 141.658 17.8098C141.654 17.8144 141.651 17.8181 141.649 17.8207C141.643 17.8263 141.643 17.8244 141.655 17.8173L140.608 16.1043ZM139.658 17.8482C139.658 18.7624 140.165 19.4517 140.889 19.9016L141.948 18.1958C141.664 18.0193 141.666 17.9083 141.666 17.8482H139.658ZM140.924 19.922C141.489 20.2424 142.112 20.5392 142.79 20.8141L143.544 18.9536C142.935 18.7065 142.392 18.4466 141.914 18.1754L140.924 19.922ZM142.794 20.8158C143.452 21.0788 144.044 21.3632 144.572 21.6672L145.573 19.9274C144.953 19.5703 144.274 19.2456 143.54 18.9519L142.794 20.8158ZM144.592 21.6785C145.058 21.9326 145.389 22.2233 145.619 22.5379L147.24 21.3534C146.809 20.7632 146.236 20.2883 145.553 19.9161L144.592 21.6785ZM145.634 22.5576C145.816 22.7946 145.948 23.1459 145.948 23.6942H147.955C147.955 22.8158 147.739 22.0014 147.225 21.3336L145.634 22.5576ZM145.948 23.6942C145.948 24.4582 145.682 25.0575 145.128 25.5613L146.478 27.0468C147.455 26.1586 147.955 25.018 147.955 23.6942H145.948ZM145.119 25.5691C144.594 26.0576 143.866 26.3442 142.828 26.3442V28.3518C144.261 28.3518 145.516 27.9424 146.487 27.039L145.119 25.5691ZM142.828 26.3442C142.145 26.3442 141.562 26.2259 141.06 26.0091L140.263 27.8517C141.049 28.1917 141.91 28.3518 142.828 28.3518V26.3442ZM141.081 26.0183C140.534 25.7669 140.087 25.4581 139.727 25.0984L138.308 26.518C138.853 27.063 139.502 27.5024 140.243 27.8425L141.081 26.0183ZM139.741 25.1125C139.365 24.7216 139.102 24.3463 138.93 23.9895L137.121 24.8604C137.402 25.4432 137.8 25.99 138.294 26.5039L139.741 25.1125ZM138.554 25.2785L140.198 24.2606L139.142 22.5536L137.497 23.5715L138.554 25.2785Z" fill="black"/>
</g>
<defs>
<filter id="filter0_d" x="0.0303926" y="5.72647" width="152.165" height="36.1363" filterUnits="userSpaceOnUse" color-interpolation-filters="sRGB">
<feFlood flood-opacity="0" result="BackgroundImageFix"/>
<feColorMatrix in="SourceAlpha" type="matrix" values="0 0 0 0 0 0 0 0 0 0 0 0 0 0 0 0 0 0 127 0"/>
<feOffset dy="4.01514"/>
<feGaussianBlur stdDeviation="2.00757"/>
<feColorMatrix type="matrix" values="0 0 0 0 0 0 0 0 0 0 0 0 0 0 0 0 0 0 0.25 0"/>
<feBlend mode="normal" in2="BackgroundImageFix" result="effect1_dropShadow"/>
<feBlend mode="normal" in="SourceGraphic" in2="effect1_dropShadow" result="shape"/>
</filter>
</defs>
</svg>
